TITLE ""
FILE "1Q_t_0869-0877.mp3" MP3
  TRACK 01 AUDIO
    TITLE "1Q_t_0869-0877_01"
    INDEX 01 00:00:00
  TRACK 02 AUDIO
    TITLE "1Q_t_0869-0877_02"
    INDEX 01 00:01:16
  TRACK 03 AUDIO
    TITLE "1Q_t_0869-0877_03"
    INDEX 01 00:01:23
  TRACK 04 AUDIO
    TITLE "1Q_t_0869-0877_04"
    INDEX 01 00:03:20
  TRACK 05 AUDIO
    TITLE "1Q_t_0869-0877_05"
    INDEX 01 00:03:26
  TRACK 06 AUDIO
    TITLE "1Q_t_0869-0877_06"
    INDEX 01 00:08:06
  TRACK 07 AUDIO
    TITLE "1Q_t_0869-0877_07"
    INDEX 01 00:08:51
  TRACK 08 AUDIO
    TITLE "1Q_t_0869-0877_08"
    INDEX 01 00:09:74
  TRACK 09 AUDIO
    TITLE "1Q_t_0869-0877_09"
    INDEX 01 00:10:42
  TRACK 10 AUDIO
    TITLE "1Q_t_0869-0877_10"
    INDEX 01 00:11:71
  TRACK 11 AUDIO
    TITLE "1Q_t_0869-0877_11"
    INDEX 01 00:12:08
  TRACK 12 AUDIO
    TITLE "1Q_t_0869-0877_12"
    INDEX 01 00:15:27
  TRACK 13 AUDIO
    TITLE "1Q_t_0869-0877_13"
    INDEX 01 00:15:35
  TRACK 14 AUDIO
    TITLE "1Q_t_0869-0877_14"
    INDEX 01 00:20:50
  TRACK 15 AUDIO
    TITLE "1Q_t_0869-0877_15"
    INDEX 01 00:21:20
  TRACK 16 AUDIO
    TITLE "1Q_t_0869-0877_16"
    INDEX 01 00:22:37
  TRACK 17 AUDIO
    TITLE "1Q_t_0869-0877_17"
    INDEX 01 00:22:45
  TRACK 18 AUDIO
    TITLE "1Q_t_0869-0877_18"
    INDEX 01 00:24:03
  TRACK 19 AUDIO
    TITLE "1Q_t_0869-0877_19"
    INDEX 01 00:24:09
  TRACK 20 AUDIO
    TITLE "1Q_t_0869-0877_20"
    INDEX 01 00:28:30
  TRACK 21 AUDIO
    TITLE "1Q_t_0869-0877_21"
    INDEX 01 00:28:75
  TRACK 22 AUDIO
    TITLE "1Q_t_0869-0877_22"
    INDEX 01 00:30:47
  TRACK 23 AUDIO
    TITLE "1Q_t_0869-0877_23"
    INDEX 01 00:30:56
  TRACK 24 AUDIO
    TITLE "1Q_t_0869-0877_24"
    INDEX 01 00:31:66
  TRACK 25 AUDIO
    TITLE "1Q_t_0869-0877_25"
    INDEX 01 00:31:72
  TRACK 26 AUDIO
    TITLE "1Q_t_0869-0877_26"
    INDEX 01 00:37:68
  TRACK 27 AUDIO
    TITLE "1Q_t_0869-0877_27"
    INDEX 01 00:38:40
  TRACK 28 AUDIO
    TITLE "1Q_t_0869-0877_28"
    INDEX 01 00:39:40
  TRACK 29 AUDIO
    TITLE "1Q_t_0869-0877_29"
    INDEX 01 00:39:51
  TRACK 30 AUDIO
    TITLE "1Q_t_0869-0877_30"
    INDEX 01 00:42:05
  TRACK 31 AUDIO
    TITLE "1Q_t_0869-0877_31"
    INDEX 01 00:42:13
  TRACK 32 AUDIO
    TITLE "1Q_t_0869-0877_32"
    INDEX 01 00:47:71
  TRACK 33 AUDIO
    TITLE "1Q_t_0869-0877_33"
    INDEX 01 00:48:43
  TRACK 34 AUDIO
    TITLE "1Q_t_0869-0877_34"
    INDEX 01 00:49:56
  TRACK 35 AUDIO
    TITLE "1Q_t_0869-0877_35"
    INDEX 01 00:49:66
  TRACK 36 AUDIO
    TITLE "1Q_t_0869-0877_36"
    INDEX 01 00:52:09
  TRACK 37 AUDIO
    TITLE "1Q_t_0869-0877_37"
    INDEX 01 00:52:15
  TRACK 38 AUDIO
    TITLE "1Q_t_0869-0877_38"
    INDEX 01 00:58:27
  TRACK 39 AUDIO
    TITLE "1Q_t_0869-0877_39"
    INDEX 01 00:58:74
  TRACK 40 AUDIO
    TITLE "1Q_t_0869-0877_40"
    INDEX 01 01:00:28
  TRACK 41 AUDIO
    TITLE "1Q_t_0869-0877_41"
    INDEX 01 01:00:38
  TRACK 42 AUDIO
    TITLE "1Q_t_0869-0877_42"
    INDEX 01 01:02:68
  TRACK 43 AUDIO
    TITLE "1Q_t_0869-0877_43"
    INDEX 01 01:02:74
  TRACK 44 AUDIO
    TITLE "1Q_t_0869-0877_44"
    INDEX 01 01:09:70
  TRACK 45 AUDIO
    TITLE "1Q_t_0869-0877_45"
    INDEX 01 01:10:42
  TRACK 46 AUDIO
    TITLE "1Q_t_0869-0877_46"
    INDEX 01 01:11:55
  TRACK 47 AUDIO
    TITLE "1Q_t_0869-0877_47"
    INDEX 01 01:11:63
  TRACK 48 AUDIO
    TITLE "1Q_t_0869-0877_48"
    INDEX 01 01:14:09
  TRACK 49 AUDIO
    TITLE "1Q_t_0869-0877_49"
    INDEX 01 01:14:17
  TRACK 50 AUDIO
    TITLE "1Q_t_0869-0877_50"
    INDEX 01 01:21:22
  TRACK 51 AUDIO
    TITLE "1Q_t_0869-0877_51"
    INDEX 01 01:21:70
  TRACK 52 AUDIO
    TITLE "1Q_t_0869-0877_52"
    INDEX 01 01:22:73
  TRACK 53 AUDIO
    TITLE "1Q_t_0869-0877_53"
    INDEX 01 01:23:08
  TRACK 54 AUDIO
    TITLE "1Q_t_0869-0877_54"
    INDEX 01 01:24:29
  TRACK 55 AUDIO
    TITLE "1Q_t_0869-0877_55"
    INDEX 01 01:24:37
  TRACK 56 AUDIO
    TITLE "1Q_t_0869-0877_56"
    INDEX 01 01:29:51
